<svg width="13" height="20" viewBox="0 0 13 20" fill="none" xmlns="http://www.w3.org/2000/svg">
<path fill-rule="evenodd" clip-rule="evenodd" d="M4.29872 1.62308C5.33737 0.58418 6.74612 0.000355482 8.21516 0H11.971L11.9727 5.72662H8.40322V7.13723H12.2756L10.8431 12.8638H8.40322V20.0011H2.6766V12.8638H0V7.13723H2.6766V5.53991C2.6766 4.07086 3.26008 2.66197 4.29872 1.62308ZM8.21542 2.15855C7.31887 2.15883 6.45912 2.51517 5.82523 3.14921C5.19128 3.78332 4.83514 4.64326 4.83514 5.53991V9.29577H2.15855V10.7053H4.83514V17.8425H6.24467V10.7053H9.15799L9.51059 9.29577H6.24467V5.53991C6.24467 5.01694 6.45242 4.5154 6.82221 4.14561C7.192 3.77582 7.69354 3.56808 8.2165 3.56808H9.8135L9.81307 2.15855H8.21542C8.21551 2.15855 8.21534 2.15855 8.21542 2.15855Z" fill="white"/>
</svg>
