<svg width="14" height="18" viewBox="0 0 14 18" fill="none" xmlns="http://www.w3.org/2000/svg">
<path d="M10.9007 0.281982C11.5614 0.28383 12.1944 0.547077 12.6615 1.01421C13.1287 1.48133 13.3919 2.11437 13.3937 2.77498H3.43575V12.994C3.43602 13.0065 3.43375 13.019 3.42907 13.0307C3.4244 13.0423 3.41741 13.0529 3.40853 13.0618C3.39966 13.0706 3.38907 13.0776 3.37742 13.0823C3.36578 13.087 3.3533 13.0893 3.34075 13.089H1.04075C1.0282 13.0893 1.01572 13.087 1.00407 13.0823C0.992424 13.0776 0.981843 13.0706 0.972966 13.0618C0.96409 13.0529 0.957102 13.0423 0.952424 13.0307C0.947747 13.019 0.945476 13.0065 0.945749 12.994V2.77498C0.947596 2.11437 1.21084 1.48133 1.67797 1.01421C2.1451 0.547077 2.77813 0.28383 3.43875 0.281982H10.9037H10.9007ZM10.9007 15.226H0.942749C0.944596 15.8866 1.20784 16.5196 1.67497 16.9868C2.1421 17.4539 2.77513 17.7171 3.43575 17.719H10.9007C11.5614 17.7171 12.1944 17.4539 12.6615 16.9868C13.1287 16.5196 13.3919 15.8866 13.3937 15.226V4.99398C13.394 4.98143 13.3918 4.96896 13.3871 4.95731C13.3824 4.94566 13.3754 4.93508 13.3665 4.9262C13.3577 4.91732 13.3471 4.91034 13.3354 4.90566C13.3238 4.90098 13.3113 4.89871 13.2987 4.89898H10.9987C10.9862 4.89871 10.9737 4.90098 10.9621 4.90566C10.9504 4.91034 10.9398 4.91732 10.931 4.9262C10.9221 4.93508 10.9151 4.94566 10.9104 4.95731C10.9057 4.96896 10.9035 4.98143 10.9037 4.99398V15.226H10.9007Z" fill="white"/>
</svg>
