<svg width="21" height="20" viewBox="0 0 21 20" fill="none" xmlns="http://www.w3.org/2000/svg">
<path d="M13.912 0.000488281H6.41205C2.9608 0.000488281 0.162048 2.79924 0.162048 6.25049V13.7505C0.162048 17.2017 2.9608 20.0005 6.41205 20.0005H13.912C17.3633 20.0005 20.162 17.2017 20.162 13.7505V6.25049C20.162 2.79924 17.3633 0.000488281 13.912 0.000488281ZM18.287 13.7505C18.287 16.163 16.3245 18.1255 13.912 18.1255H6.41205C3.99955 18.1255 2.03705 16.163 2.03705 13.7505V6.25049C2.03705 3.83799 3.99955 1.87549 6.41205 1.87549H13.912C16.3245 1.87549 18.287 3.83799 18.287 6.25049V13.7505Z" fill="white"/>
<path d="M10.162 5.00049C7.4008 5.00049 5.16205 7.23924 5.16205 10.0005C5.16205 12.7617 7.4008 15.0005 10.162 15.0005C12.9233 15.0005 15.162 12.7617 15.162 10.0005C15.162 7.23924 12.9233 5.00049 10.162 5.00049ZM10.162 13.1255C8.43955 13.1255 7.03705 11.723 7.03705 10.0005C7.03705 8.27674 8.43955 6.87549 10.162 6.87549C11.8845 6.87549 13.287 8.27674 13.287 10.0005C13.287 11.723 11.8845 13.1255 10.162 13.1255Z" fill="white"/>
<path d="M15.5371 5.29173C15.9051 5.29173 16.2034 4.99344 16.2034 4.62548C16.2034 4.25752 15.9051 3.95923 15.5371 3.95923C15.1691 3.95923 14.8708 4.25752 14.8708 4.62548C14.8708 4.99344 15.1691 5.29173 15.5371 5.29173Z" fill="white"/>
</svg>
