<svg width="21" height="20" viewBox="0 0 21 20" fill="none" xmlns="http://www.w3.org/2000/svg">
<path fill-rule="evenodd" clip-rule="evenodd" d="M13.7672 7.96855C12.6404 7.96855 11.5598 8.41617 10.763 9.21293C9.96623 10.0097 9.51862 11.0903 9.51862 12.2171V17.3532H10.9212V12.2171C10.9212 11.8432 10.9949 11.473 11.1379 11.1276C11.281 10.7822 11.4907 10.4683 11.7551 10.204C12.0195 9.93958 12.3333 9.72987 12.6787 9.5868C13.0242 9.44372 13.3944 9.37008 13.7683 9.37008C14.1421 9.37008 14.5124 9.44372 14.8578 9.5868C15.2032 9.72987 15.5171 9.93958 15.7814 10.204C16.0458 10.4683 16.2555 10.7822 16.3986 11.1276C16.5417 11.473 16.6153 11.8432 16.6153 12.2171V17.3532H18.0158V12.2171C18.0158 11.0903 17.5681 10.0097 16.7714 9.21293C15.9746 8.41617 14.894 7.96855 13.7672 7.96855ZM9.24534 7.69528C10.4446 6.49601 12.0712 5.82227 13.7672 5.82227C15.4632 5.82227 17.0898 6.49601 18.289 7.69528C19.4883 8.89455 20.1621 10.5211 20.1621 12.2171V19.4995H14.469V12.2171C14.469 12.1251 14.4509 12.034 14.4157 11.949C14.3805 11.8639 14.3288 11.7867 14.2638 11.7216C14.1987 11.6565 14.1215 11.6049 14.0364 11.5697C13.9514 11.5345 13.8603 11.5164 13.7683 11.5164C13.6762 11.5164 13.5851 11.5345 13.5001 11.5697C13.4151 11.6049 13.3378 11.6565 13.2727 11.7216C13.2077 11.7867 13.1561 11.8639 13.1208 11.949C13.0856 12.034 13.0675 12.1251 13.0675 12.2171V19.4995H7.37233V12.2171C7.37233 10.5211 8.04607 8.89455 9.24534 7.69528ZM0.275635 6.70975H5.96973V19.5005H0.275635V6.70975ZM2.42192 8.85604V17.3543H3.82345V8.85604H2.42192Z" fill="white"/>
<path fill-rule="evenodd" clip-rule="evenodd" d="M3.12268 2.64677C2.73566 2.64677 2.42192 2.96052 2.42192 3.34754C2.42192 3.73456 2.73566 4.0483 3.12268 4.0483C3.5097 4.0483 3.82345 3.73456 3.82345 3.34754C3.82345 2.96052 3.5097 2.64677 3.12268 2.64677ZM0.275635 3.34754C0.275635 1.77516 1.5503 0.500488 3.12268 0.500488C4.69507 0.500488 5.96973 1.77516 5.96973 3.34754C5.96973 4.91992 4.69507 6.19459 3.12268 6.19459C1.5503 6.19459 0.275635 4.91992 0.275635 3.34754Z" fill="white"/>
</svg>
