<svg width="115" height="26" viewBox="0 0 115 26" fill="none" xmlns="http://www.w3.org/2000/svg">
<path d="M12.531 0C9.2079 0.00106025 6.0212 1.32163 3.67142 3.67142C1.32163 6.0212 0.00106025 9.2079 0 12.531C0.00079519 15.8543 1.32125 19.0412 3.67106 21.3912C6.02088 23.7412 9.20772 25.0619 12.531 25.063C15.8544 25.0622 19.0416 23.7416 21.3916 21.3916C23.7416 19.0416 25.0622 15.8544 25.063 12.531V0H12.531ZM18.831 5.5H11.537V11.445H17.106C17.4196 11.445 17.7204 11.5696 17.9422 11.7913C18.1639 12.0131 18.2885 12.3139 18.2885 12.6275C18.2885 12.9411 18.1639 13.2419 17.9422 13.4637C17.7204 13.6854 17.4196 13.81 17.106 13.81H11.537V20.639C11.537 20.9705 11.4053 21.2885 11.1709 21.5229C10.9365 21.7573 10.6185 21.889 10.287 21.889C9.95548 21.889 9.63754 21.7573 9.40312 21.5229C9.1687 21.2885 9.037 20.9705 9.037 20.639V4.442C9.04006 4.10501 9.17258 3.78211 9.40712 3.54012C9.64167 3.29813 9.96027 3.15559 10.297 3.142H18.83C19.1436 3.142 19.4444 3.26658 19.6662 3.48835C19.8879 3.71011 20.0125 4.01088 20.0125 4.3245C20.0125 4.63812 19.8879 4.93889 19.6662 5.16065C19.4444 5.38242 19.1436 5.507 18.83 5.507L18.831 5.5ZM36.533 3.183C38.7733 3.14958 40.9437 3.96233 42.611 5.459C42.7383 5.56328 42.8433 5.69203 42.9199 5.83763C42.9966 5.98323 43.0432 6.14272 43.0571 6.30667C43.0709 6.47061 43.0518 6.63567 43.0007 6.79208C42.9497 6.94849 42.8678 7.09307 42.7598 7.21725C42.6519 7.34144 42.5202 7.44271 42.3724 7.51507C42.2246 7.58743 42.0639 7.62941 41.8996 7.63852C41.7353 7.64764 41.5709 7.6237 41.416 7.56813C41.2611 7.51256 41.119 7.42648 40.998 7.315C39.7804 6.19573 38.1879 5.57285 36.534 5.569C35.6267 5.57751 34.7301 5.76616 33.8963 6.12401C33.0625 6.48185 32.3081 7.00176 31.6769 7.65355C31.0456 8.30534 30.5502 9.07603 30.2192 9.92087C29.8883 10.7657 29.7284 11.6679 29.749 12.575C29.7287 13.481 29.8888 14.382 30.2201 15.2255C30.5514 16.069 31.0473 16.8381 31.6787 17.4881C32.3102 18.1381 33.0647 18.6559 33.8983 19.0115C34.7318 19.367 35.6278 19.5531 36.534 19.559C38.1871 19.551 39.7782 18.9287 40.998 17.813C41.119 17.7015 41.2611 17.6154 41.416 17.5599C41.5709 17.5043 41.7353 17.4804 41.8996 17.4895C42.0639 17.4986 42.2246 17.5406 42.3724 17.6129C42.5202 17.6853 42.6519 17.7866 42.7598 17.9107C42.8678 18.0349 42.9497 18.1795 43.0007 18.3359C43.0518 18.4923 43.0709 18.6574 43.0571 18.8213C43.0432 18.9853 42.9966 19.1448 42.9199 19.2904C42.8433 19.436 42.7383 19.5647 42.611 19.669C40.9437 21.1657 38.7733 21.9784 36.533 21.945C34.0685 21.909 31.7171 20.9047 29.9869 19.1492C28.2568 17.3936 27.287 15.0278 27.287 12.563C27.287 10.0982 28.2568 7.73238 29.9869 5.97683C31.7171 4.22127 34.0685 3.21698 36.533 3.181V3.183ZM45.285 12.111C45.1259 11.8634 45.0649 11.5654 45.1139 11.2752C45.163 10.9851 45.3184 10.7236 45.55 10.542C46.7915 9.5344 48.3516 9.00254 49.95 9.042C53.486 9.042 55.608 10.81 55.608 14.236V20.601C55.6085 20.7608 55.5774 20.9192 55.5165 21.067C55.4556 21.2147 55.366 21.349 55.253 21.462C55.14 21.575 55.0057 21.6646 54.858 21.7255C54.7102 21.7864 54.5518 21.8175 54.392 21.817C54.2351 21.8147 54.0802 21.7813 53.9362 21.7188C53.7923 21.6563 53.6621 21.5659 53.5532 21.4529C53.4444 21.3398 53.359 21.2064 53.302 21.0602C53.2449 20.9139 53.2174 20.7579 53.221 20.601V20.089C52.6797 20.7036 52.0078 21.1894 51.2544 21.5105C50.501 21.8317 49.6852 21.9801 48.867 21.945C46.06 21.945 44.204 20.508 44.204 18.099C44.204 15.977 45.641 14.209 49.504 14.209C50.7683 14.2384 52.0206 14.462 53.217 14.872V14.231C53.217 12.419 51.979 11.203 49.769 11.203C48.7036 11.2311 47.6776 11.6121 46.852 12.286C46.6179 12.4627 46.3251 12.543 46.0337 12.5104C45.7422 12.4779 45.4743 12.335 45.285 12.111ZM53.219 18.011L53.202 16.796C52.0076 16.4111 50.7652 16.1953 49.511 16.155C46.969 16.155 46.483 17.26 46.483 18.1C46.483 19.028 47.257 19.8 48.914 19.8C49.7168 19.8203 50.5149 19.6716 51.2565 19.3636C51.9982 19.0555 52.6668 18.5951 53.219 18.012V18.011ZM58.656 10.387C58.656 10.2288 58.6872 10.0722 58.7477 9.92606C58.8082 9.77992 58.8969 9.64714 59.0088 9.53529C59.1206 9.42344 59.2534 9.33472 59.3996 9.27419C59.5457 9.21366 59.7023 9.1825 59.8605 9.1825C60.0187 9.1825 60.1753 9.21366 60.3214 9.27419C60.4676 9.33472 60.6004 9.42344 60.7122 9.53529C60.8241 9.64714 60.9128 9.77992 60.9733 9.92606C61.0338 10.0722 61.065 10.2288 61.065 10.387V11.161C61.4296 10.5634 61.9297 10.0599 62.5249 9.69129C63.12 9.32267 63.7935 9.09922 64.491 9.039C64.9422 9.01099 65.3952 9.04056 65.839 9.127C66.5506 9.20877 67.2266 9.48219 67.7949 9.91808C68.3632 10.354 68.8025 10.936 69.066 11.602C69.4558 10.8069 70.0691 10.1429 70.8308 9.69137C71.5925 9.23983 72.4694 9.0204 73.354 9.06C76.448 9.06 78.128 11.071 78.128 14.541V20.619C78.128 20.9385 78.0011 21.2448 77.7752 21.4707C77.5493 21.6966 77.243 21.8235 76.9235 21.8235C76.604 21.8235 76.2977 21.6966 76.0718 21.4707C75.8459 21.2448 75.719 20.9385 75.719 20.619V14.675C75.719 12.642 74.658 11.382 72.89 11.382C70.857 11.36 69.597 12.929 69.597 14.982V20.574C69.597 20.8935 69.4701 21.1998 69.2442 21.4257C69.0183 21.6516 68.712 21.7785 68.3925 21.7785C68.073 21.7785 67.7667 21.6516 67.5408 21.4257C67.3149 21.1998 67.188 20.8935 67.188 20.574V14.653C67.188 12.62 66.127 11.338 64.514 11.338C64.0367 11.3181 63.5607 11.4011 63.1184 11.5816C62.6761 11.762 62.2778 12.0356 61.9506 12.3837C61.6235 12.7318 61.3752 13.1463 61.2225 13.599C61.0699 14.0516 61.0165 14.5319 61.066 15.007V20.599C61.066 20.9185 60.9391 21.2248 60.7132 21.4507C60.4873 21.6766 60.181 21.8035 59.8615 21.8035C59.542 21.8035 59.2357 21.6766 59.0098 21.4507C58.7839 21.2248 58.657 20.9185 58.657 20.599V10.387H58.656ZM81.376 12.111C81.2169 11.8634 81.1559 11.5654 81.2049 11.2752C81.2539 10.9851 81.4094 10.7236 81.641 10.542C82.8825 9.5344 84.4426 9.00254 86.041 9.042C89.577 9.042 91.699 10.81 91.699 14.236V20.601C91.6995 20.7608 91.6684 20.9192 91.6075 21.067C91.5466 21.2147 91.457 21.349 91.344 21.462C91.231 21.575 91.0967 21.6646 90.949 21.7255C90.8012 21.7864 90.6428 21.8175 90.483 21.817C90.3261 21.8147 90.1712 21.7813 90.0272 21.7188C89.8833 21.6563 89.7531 21.5659 89.6442 21.4529C89.5354 21.3398 89.45 21.2064 89.393 21.0602C89.3359 20.9139 89.3084 20.7579 89.312 20.601V20.089C88.7708 20.7037 88.0988 21.1894 87.3454 21.5106C86.592 21.8318 85.7763 21.9802 84.958 21.945C82.151 21.945 80.295 20.508 80.295 18.099C80.295 15.977 81.732 14.209 85.595 14.209C86.8593 14.2384 88.1116 14.462 89.308 14.872V14.231C89.308 12.419 88.07 11.203 85.86 11.203C84.7946 11.2311 83.7686 11.6121 82.943 12.286C82.7089 12.4627 82.4161 12.543 82.1247 12.5104C81.8332 12.4779 81.5653 12.335 81.376 12.111V12.111ZM89.31 18.011L89.288 16.795C88.0936 16.4101 86.8512 16.1943 85.597 16.154C83.055 16.154 82.569 17.259 82.569 18.099C82.569 19.027 83.343 19.799 85 19.799C86.282 19.802 88.36 19.316 89.31 18.012V18.011ZM100.56 11.339C98.173 11.339 97.16 13.881 97.16 17.174V20.6C97.16 20.9195 97.0331 21.2258 96.8072 21.4517C96.5813 21.6776 96.275 21.8045 95.9555 21.8045C95.636 21.8045 95.3297 21.6776 95.1038 21.4517C94.8779 21.2258 94.751 20.9195 94.751 20.6V10.387C94.751 10.0675 94.8779 9.76118 95.1038 9.53529C95.3297 9.3094 95.636 9.1825 95.9555 9.1825C96.275 9.1825 96.5813 9.3094 96.8072 9.53529C97.0331 9.76118 97.16 10.0675 97.16 10.387V12.087C97.801 9.921 98.994 9.037 100.608 9.037C101.514 9.037 102.995 9.214 102.774 10.518C102.641 11.292 101.956 11.446 101.094 11.358C100.917 11.3409 100.738 11.3346 100.56 11.339V11.339ZM104.294 12.111C104.135 11.8634 104.074 11.5654 104.123 11.2752C104.172 10.9851 104.327 10.7236 104.559 10.542C105.8 9.5344 107.361 9.00254 108.959 9.042C112.495 9.042 114.617 10.81 114.617 14.236V20.601C114.618 20.7608 114.586 20.9192 114.526 21.067C114.465 21.2147 114.375 21.349 114.262 21.462C114.149 21.575 114.015 21.6646 113.867 21.7255C113.719 21.7864 113.561 21.8175 113.401 21.817C113.244 21.8147 113.089 21.7813 112.945 21.7188C112.801 21.6563 112.671 21.5659 112.562 21.4529C112.453 21.3398 112.368 21.2064 112.311 21.0602C112.254 20.9139 112.226 20.7579 112.23 20.601V20.089C111.689 20.7036 111.017 21.1894 110.263 21.5105C109.51 21.8317 108.694 21.9801 107.876 21.945C105.069 21.945 103.213 20.508 103.213 18.099C103.213 15.977 104.65 14.209 108.513 14.209C109.777 14.2384 111.03 14.462 112.226 14.872V14.231C112.226 12.419 110.988 11.203 108.778 11.203C107.713 11.2311 106.687 11.6121 105.861 12.286C105.627 12.4627 105.334 12.543 105.043 12.5104C104.751 12.4779 104.483 12.335 104.294 12.111V12.111ZM112.228 18.011L112.211 16.796C111.017 16.4111 109.774 16.1953 108.52 16.155C105.978 16.155 105.492 17.26 105.492 18.1C105.492 19.028 106.266 19.8 107.923 19.8C108.726 19.8203 109.524 19.6716 110.266 19.3636C111.007 19.0555 111.676 18.5951 112.228 18.012V18.011ZM85.31 5.813C85.0862 6.05146 84.8157 6.24123 84.5153 6.37044C84.2148 6.49966 83.891 6.56555 83.564 6.564C83.1613 6.56241 82.7631 6.47977 82.393 6.321C82.033 6.15965 81.7098 5.92657 81.443 5.636C81.1667 5.34076 80.9492 4.99562 80.802 4.619C80.643 4.21788 80.5605 3.7905 80.559 3.359C80.5605 2.94176 80.6431 2.52878 80.802 2.143C80.9547 1.77582 81.1718 1.43886 81.443 1.148C81.7196 0.858909 82.0497 0.626272 82.415 0.463C82.7967 0.292036 83.212 0.209319 83.63 0.221C84.1627 0.208677 84.6891 0.338459 85.155 0.597C85.5612 0.829826 85.8912 1.17545 86.105 1.592L85.199 2.255C85.0572 1.95589 84.8254 1.70866 84.536 1.548C84.2519 1.39051 83.9328 1.30695 83.608 1.305C83.3545 1.30596 83.1047 1.3666 82.879 1.482C82.655 1.59171 82.4585 1.75027 82.304 1.946C82.1436 2.14158 82.0233 2.36688 81.95 2.609C81.8714 2.86883 81.8267 3.13772 81.817 3.409C81.8144 3.68725 81.8594 3.96391 81.95 4.227C82.0294 4.47636 82.1664 4.70351 82.35 4.89C82.5099 5.08518 82.7162 5.23715 82.95 5.332C83.1774 5.44033 83.4272 5.49344 83.679 5.487C83.9988 5.47529 84.3118 5.39171 84.5948 5.24249C84.8779 5.09326 85.1237 4.88221 85.314 4.625V4.177H84.054V3.293H86.33V6.521H85.313V5.813H85.31ZM88.227 6.52V0.243H91.012C91.2883 0.243308 91.5613 0.303703 91.812 0.42C92.0568 0.536237 92.275 0.701679 92.453 0.906C92.6259 1.10439 92.7675 1.32796 92.873 1.569C92.9771 1.8056 93.0299 2.06154 93.028 2.32C93.0278 2.70963 92.9209 3.09176 92.719 3.425C92.5258 3.74466 92.2407 3.9987 91.901 4.154L93.338 6.519H91.946L90.664 4.419H89.471V6.519L88.227 6.52ZM89.465 3.36H90.99C91.0998 3.36494 91.2083 3.33406 91.299 3.272C91.395 3.2168 91.478 3.14139 91.542 3.051C91.6185 2.95059 91.6783 2.83848 91.719 2.719C91.7626 2.59014 91.7849 2.45503 91.785 2.319C91.7887 2.18268 91.7663 2.04692 91.719 1.919C91.6741 1.79658 91.6063 1.68388 91.519 1.587C91.4362 1.50691 91.3476 1.43305 91.254 1.366C91.1566 1.32315 91.0514 1.30069 90.945 1.3H89.464V3.359L89.465 3.36ZM97.643 5.481C97.8972 5.48545 98.1482 5.4245 98.372 5.304C98.5694 5.19131 98.7363 5.03201 98.858 4.84C98.9818 4.64279 99.0714 4.42607 99.123 4.199C99.1788 3.95279 99.201 3.70016 99.189 3.448V0.243H100.402V3.443C100.408 3.85361 100.356 4.26297 100.247 4.659C100.148 5.01808 99.9837 5.35556 99.761 5.654C99.5351 5.94509 99.2383 6.17336 98.899 6.317C98.5074 6.48231 98.086 6.56503 97.661 6.56C97.2188 6.57345 96.7796 6.48267 96.379 6.295C96.0429 6.1359 95.7479 5.90151 95.517 5.61C95.2927 5.31551 95.1344 4.97614 95.053 4.615C94.9579 4.23141 94.9073 3.83816 94.902 3.443V0.243H96.118V3.443C96.117 3.70245 96.1391 3.96146 96.184 4.217C96.2216 4.44826 96.3123 4.66767 96.449 4.858C96.5808 5.03395 96.7371 5.19019 96.913 5.322C97.1404 5.43187 97.3905 5.48635 97.643 5.481V5.481ZM102.504 6.52V0.243H105.156C105.432 0.243308 105.705 0.303703 105.956 0.42C106.201 0.536262 106.419 0.7017 106.597 0.906C106.77 1.10441 106.911 1.32797 107.017 1.569C107.121 1.8056 107.174 2.06154 107.172 2.32C107.173 2.58376 107.128 2.84566 107.039 3.094C106.949 3.33849 106.813 3.56353 106.639 3.757C106.468 3.9541 106.257 4.11232 106.02 4.221C105.769 4.33727 105.496 4.39766 105.22 4.398H103.739V6.498L102.501 6.52H102.504ZM103.742 3.36H105.156C105.262 3.36204 105.367 3.339 105.462 3.29277C105.557 3.24654 105.64 3.17843 105.704 3.094C105.858 2.87487 105.936 2.61085 105.925 2.343C105.928 2.20019 105.906 2.05796 105.859 1.923C105.818 1.80352 105.759 1.6914 105.682 1.591C105.609 1.50567 105.519 1.43738 105.417 1.391C105.313 1.34592 105.2 1.32342 105.086 1.325H103.716L103.738 3.358L103.742 3.36ZM111.588 6.564C111.154 6.57045 110.723 6.47992 110.328 6.299C109.965 6.12229 109.636 5.88296 109.356 5.592C109.084 5.29776 108.873 4.95195 108.737 4.575C108.587 4.2029 108.512 3.80504 108.516 3.404C108.518 2.99422 108.6 2.5888 108.759 2.211C108.912 1.8371 109.128 1.49287 109.4 1.194C109.676 0.898113 110.006 0.658074 110.372 0.487C110.76 0.308002 111.183 0.217159 111.61 0.221C112.04 0.210917 112.466 0.309635 112.848 0.508C113.213 0.679786 113.537 0.928451 113.798 1.237C114.058 1.54024 114.267 1.88371 114.417 2.254C114.567 2.6261 114.642 3.02396 114.638 3.425C114.644 3.83442 114.568 4.24091 114.416 4.621C114.258 4.99218 114.042 5.33556 113.775 5.638C113.499 5.93385 113.169 6.17388 112.803 6.345C112.414 6.48742 112.003 6.56151 111.588 6.564V6.564ZM109.754 3.381C109.754 3.65313 109.799 3.92335 109.887 4.181C109.964 4.42136 110.084 4.64591 110.241 4.844C110.396 5.03973 110.592 5.19829 110.816 5.308C111.17 5.4904 111.577 5.54156 111.965 5.45241C112.353 5.36326 112.697 5.13957 112.936 4.821C113.093 4.61491 113.213 4.38313 113.29 4.136C113.372 3.8864 113.409 3.62449 113.401 3.362C113.401 3.08987 113.356 2.81965 113.268 2.562C113.191 2.32163 113.071 2.09708 112.914 1.899C112.753 1.7094 112.558 1.55196 112.339 1.435C112.098 1.31708 111.834 1.2565 111.566 1.258C111.29 1.25834 111.017 1.31873 110.766 1.435C110.541 1.55291 110.345 1.71882 110.191 1.921C110.039 2.12194 109.919 2.34571 109.837 2.584C109.789 2.84711 109.761 3.11358 109.754 3.381V3.381Z" fill="#FC6027"/>
</svg>
