<svg width="22" height="16" viewBox="0 0 22 16" fill="none" xmlns="http://www.w3.org/2000/svg">
<path fill-rule="evenodd" clip-rule="evenodd" d="M11.0551 0.0250916C13.6563 -0.00311285 16.2569 0.124092 18.843 0.406027L18.934 0.415956L19.0221 0.441095C19.6235 0.612687 20.1691 0.939586 20.604 1.38892C21.0389 1.83826 21.3479 2.39418 21.4998 3.0008L20.4528 3.26298L21.515 3.07145C21.8095 4.70461 21.9525 6.36148 21.9422 8.02095C21.9479 9.65516 21.8049 11.2865 21.515 12.8948L21.5086 12.9304L21.4998 12.9656C21.3479 13.5722 21.0389 14.1281 20.604 14.5774C20.1691 15.0268 19.6235 15.3537 19.0221 15.5253L18.9394 15.5489L18.8539 15.5591C16.2649 15.868 13.6584 16.0072 11.0512 15.9758C8.44473 16.0067 5.839 15.8672 3.25072 15.558L3.16996 15.5483L3.09155 15.5267C2.50242 15.3641 1.96505 15.0526 1.53113 14.6222C1.09721 14.1918 0.781347 13.657 0.613919 13.0692L0.599259 13.0177L0.589762 12.9651C0.295356 11.3324 0.152327 9.6761 0.162493 8.01717C0.155712 6.37053 0.299857 4.72672 0.593123 3.10638L0.5995 3.07115L0.608198 3.03642C0.760109 2.4298 1.06906 1.87387 1.50399 1.42454C1.93892 0.975203 2.48448 0.648303 3.08583 0.476711L3.16855 0.453108L3.25396 0.442905C5.84245 0.133695 8.44839 -0.00587338 11.0551 0.0250916ZM19.3979 3.49477C19.3356 3.26763 19.217 3.05966 19.053 2.89018C18.9 2.73215 18.7123 2.61256 18.5053 2.54063C16.0349 2.27544 13.5509 2.15623 11.0664 2.18364L11.054 2.18378L11.0415 2.18363C8.55753 2.1536 6.07426 2.28423 3.60723 2.57468C3.39838 2.64643 3.20905 2.76661 3.05497 2.92579C2.89086 3.09535 2.77227 3.30343 2.70998 3.53068C2.44472 5.01007 2.31453 6.51055 2.32104 8.01358L2.32109 8.0251H2.32103C2.31147 9.53275 2.43945 11.0381 2.70337 12.5224C2.77208 12.7364 2.8913 12.931 3.05121 13.0897C3.2055 13.2427 3.39298 13.3576 3.5987 13.4256C6.06747 13.7165 8.55251 13.8473 11.0382 13.8173L11.0514 13.8171L11.0645 13.8173C13.5491 13.8477 16.0331 13.7175 18.5008 13.4273C18.7096 13.3555 18.8989 13.2353 19.053 13.0762C19.217 12.9067 19.3356 12.6988 19.3979 12.4716C19.66 11.0035 19.7892 9.51468 19.7837 8.02329L19.7837 8.01245L19.7837 8.01245C19.7934 6.4979 19.6642 4.98569 19.3979 3.49477Z" fill="white"/>
<path fill-rule="evenodd" clip-rule="evenodd" d="M7.96777 3.24463L16.3601 8.02257L7.96777 12.7899V3.24463ZM10.1263 6.9574V9.08121L11.9936 8.02048L10.1263 6.9574Z" fill="white"/>
</svg>
